<svg xmlns="http://www.w3.org/2000/svg" viewBox="0 0 1600 1000" preserveAspectRatio="xMidYMid slice"><defs><linearGradient id="sky" x2="0" y2="1"><stop stop-color="#74c9ed"/><stop offset="1" stop-color="#eaf7e9"/></linearGradient><linearGradient id="sea" x2="0" y2="1"><stop stop-color="#54c5d1"/><stop offset="1" stop-color="#178caa"/></linearGradient></defs><rect width="1600" height="1000" fill="url(#sky)"/><circle cx="1240" cy="172" r="104" fill="#fff3ad"/><path d="M0 540 Q240 465 430 535 T850 530 T1240 520 T1600 505 V1000H0Z" fill="url(#sea)"/><path d="M0 695 Q240 638 480 700 T960 694 T1360 681 T1600 690 V1000H0Z" fill="#bce6cc"/><path d="M0 850 Q330 776 690 850 T1250 840 T1600 825 V1000H0Z" fill="#72bc88"/><g fill="#fff" opacity=".75"><path d="M160 210 q50-40 100 0 q45-34 95 0 h-195z"/><path d="M1260 310 q54-42 106 0 q42-34 92 0 h-198z"/></g><path d="M125 1000 Q180 750 275 1000M1510 1000 Q1430 745 1355 1000" fill="none" stroke="#277f68" stroke-width="34"/><path d="M198 805 Q115 730 60 760M1420 810 Q1500 726 1562 752" fill="none" stroke="#277f68" stroke-width="18"/></svg>
